<svg width="16" height="16" viewBox="0 0 16 16" xmlns="http://www.w3.org/2000/svg">
<path d="M12.9693 3.03858C12.8219 2.89088 12.6218 2.80788 12.4132 2.80788C12.2045 2.80788 12.0045 2.89088 11.8571 3.03858L7.99999 6.88781L4.14288 3.03069C3.99551 2.88299 3.79544 2.79999 3.58679 2.79999C3.37815 2.79999 3.17807 2.88299 3.0307 3.03069C2.72308 3.33832 2.72308 3.83524 3.0307 4.14287L6.88782 7.99998L3.0307 11.8571C2.72308 12.1647 2.72308 12.6616 3.0307 12.9693C3.33833 13.2769 3.83526 13.2769 4.14288 12.9693L7.99999 9.11216L11.8571 12.9693C12.1647 13.2769 12.6617 13.2769 12.9693 12.9693C13.2769 12.6616 13.2769 12.1647 12.9693 11.8571L9.11217 7.99998L12.9693 4.14287C13.269 3.84313 13.269 3.33832 12.9693 3.03858Z" fill="black" fill-opacity="0.6"/>
</svg>
